<?xml version="1.0" encoding="UTF-8" standalone="no"?>
<svg
   xmlns:dc="http://purl.org/dc/elements/1.1/"
   xmlns:cc="http://creativecommons.org/ns#"
   xmlns:rdf="http://www.w3.org/1999/02/22-rdf-syntax-ns#"
   xmlns:svg="http://www.w3.org/2000/svg"
   xmlns="http://www.w3.org/2000/svg"
   xmlns:sodipodi="http://sodipodi.sourceforge.net/DTD/sodipodi-0.dtd"
   xmlns:inkscape="http://www.inkscape.org/namespaces/inkscape"
   viewBox="0 0 300 300"
   stroke-miterlimit="1.414"
   version="1.1"
   id="svg4"
   sodipodi:docname="logo.svg"
   width="300"
   height="300"
   style="clip-rule:evenodd;fill-rule:evenodd;stroke-linejoin:round;stroke-miterlimit:1.41400003"
   inkscape:version="0.92.2 (5c3e80d, 2017-08-06)"
   inkscape:export-filename="C:\xampp\htdocs\Simplelogin\assets\images\logo.png"
   inkscape:export-xdpi="96"
   inkscape:export-ydpi="96">
  <metadata
     id="metadata10">
    <rdf:RDF>
      <cc:Work
         rdf:about="">
        <dc:format>image/svg+xml</dc:format>
        <dc:type
           rdf:resource="http://purl.org/dc/dcmitype/StillImage" />
        <dc:title></dc:title>
      </cc:Work>
    </rdf:RDF>
  </metadata>
  <defs
     id="defs8" />
  <sodipodi:namedview
     pagecolor="#ffffff"
     bordercolor="#666666"
     borderopacity="1"
     objecttolerance="10"
     gridtolerance="10"
     guidetolerance="10"
     inkscape:pageopacity="0"
     inkscape:pageshadow="2"
     inkscape:window-width="1920"
     inkscape:window-height="1001"
     id="namedview6"
     showgrid="false"
     inkscape:zoom="1.2291667"
     inkscape:cx="62.86973"
     inkscape:cy="83.361963"
     inkscape:window-x="-9"
     inkscape:window-y="-9"
     inkscape:window-maximized="1"
     inkscape:current-layer="svg4"
     inkscape:snap-global="false" />
  <path
     d="m 104.50784,-0.54238894 c -14.745437,0 -29.520398,12.01240794 -29.520398,26.99663194 V 53.450849 H 27.766331 c -14.745438,0 -26.4357479,12.012541 -26.4357479,26.996766 L 1.1864412,228.98813 c 0,14.98419 11.8344508,26.9966 26.5798898,26.9966 H 148.99024 l 23.58173,-24.13786 c -5.75648,-10.74394 -9.05215,-23.09332 -9.05215,-36.22146 0,-41.63283 33.09167,-75.44915 73.82983,-75.44915 10.49451,0 20.47239,2.26302 29.5204,6.30709 V 80.447615 c 0,-14.984225 -11.83445,-26.996766 -26.57989,-26.996766 H 193.06905 V 26.454243 c 0,-14.984224 -14.77497,-26.99663194 -29.52041,-26.99663194 z m 0,30.17966294 h 59.0408 v 23.813575 h -59.0408 z M 239.74242,135.26608 c -33.32855,0 -60.33809,27.61274 -60.33809,61.68558 0,15.286 5.46611,29.32196 14.5584,40.14134 l -2.59456,2.56407 h -7.32245 l -46.32743,47.45043 13.83769,14.14671 46.41391,-47.362 v -7.48607 l 2.50808,-2.65248 c 10.58306,9.29534 24.31234,14.88355 39.26445,14.88355 33.32852,0 60.33808,-27.61272 60.33808,-61.68555 0,-34.07284 -27.00956,-61.68558 -60.33808,-61.68558 z m 0,18.98014 c 23.11446,0 41.77251,19.07476 41.77251,42.70544 0,23.63068 -18.65805,42.70541 -41.77251,42.70541 -23.11449,0 -41.77253,-19.07473 -41.77253,-42.70541 0,-23.63068 18.65804,-42.70544 41.77253,-42.70544 z"
     id="path2"
     inkscape:connector-curvature="0"
     style="stroke-width:0.99999994" />
</svg>
